<?xml version="1.0" encoding="UTF-8"?>
<svg version="1.1" xmlns="http://www.w3.org/2000/svg" width="1920" height="1080">
<path d="M0 0 C1.07781755 -0.00436032 2.1556351 -0.00872064 3.26611379 -0.0132131 C6.87859778 -0.02416343 10.49069965 -0.01374796 14.10318089 -0.00342751 C16.71894687 -0.00688414 19.33471141 -0.01164874 21.95047289 -0.01760924 C27.63813166 -0.02843288 33.32570497 -0.02812266 39.01336765 -0.02046776 C47.4711924 -0.00911552 55.92894512 -0.01492403 64.3867694 -0.02409268 C79.49310908 -0.03988906 94.5994107 -0.03852101 109.70575401 -0.02985594 C122.92617075 -0.02230987 136.14657354 -0.02033889 149.366992 -0.02392387 C150.24386595 -0.02415303 151.12073991 -0.02438218 152.0241858 -0.02461828 C155.58369616 -0.0255523 159.14320652 -0.0265075 162.70271687 -0.02749758 C196.09614865 -0.03667528 229.48955619 -0.02835322 262.88298423 -0.01220688 C292.55035464 0.00202876 322.21768642 0.00075717 351.8850565 -0.01358986 C385.21582509 -0.02965461 418.54657226 -0.03602316 451.87734419 -0.02675307 C455.43068667 -0.02579092 458.98402915 -0.0248524 462.53737164 -0.02392387 C463.41229631 -0.02368664 464.28722098 -0.02344941 465.18865852 -0.02320499 C478.39999869 -0.0197928 491.61132337 -0.023783 504.8226614 -0.03136253 C519.84557155 -0.03993842 534.86843767 -0.0377999 549.89134233 -0.0215203 C558.29877443 -0.01271006 566.70611119 -0.01213837 575.11354081 -0.02345882 C581.38946966 -0.03097715 587.66528601 -0.02282508 593.94120104 -0.0085351 C596.48146847 -0.00517971 599.02174864 -0.00689831 601.5620079 -0.01416247 C605.01230025 -0.02327326 608.46207307 -0.01393929 611.91233826 0 C612.9006505 -0.0070235 613.88896275 -0.014047 614.90722385 -0.02128333 C626.24602529 0.07039048 636.76490772 3.48171416 645.13237095 11.36971092 C650.28249326 17.02098386 652.30851583 21.42847325 652.3940897 29.19002342 C652.42244907 30.35146873 652.45080845 31.51291405 652.4800272 32.70955467 C651.40951498 41.22829172 645.92115231 47.48038148 640.7690897 54.06502342 C639.32886055 55.93081237 637.88876002 57.7967006 636.4487772 59.66267967 C635.34614536 61.08411278 635.34614536 61.08411278 634.22123814 62.5342617 C630.75701067 67.00703255 627.32386191 71.50330646 623.8940897 76.00252342 C622.89998081 77.30479881 622.89998081 77.30479881 621.88578892 78.6333828 C616.90331293 85.17570724 612.02358903 91.78883731 607.16703892 98.4248867 C602.64784679 104.57761461 597.98045966 110.60291253 593.26860142 116.60872459 C589.08437719 121.96016404 585.02719789 127.39321467 581.0190897 132.87752342 C575.89388954 139.89035311 570.63051154 146.77457282 565.2690897 153.60799217 C561.08481084 158.95975955 557.02737132 164.39297737 553.0190897 169.87752342 C547.89388954 176.89035311 542.63051154 183.77457282 537.2690897 190.60799217 C533.08481084 195.95975955 529.02737132 201.39297737 525.0190897 206.87752342 C520.45226454 213.1263266 515.79659657 219.28826948 511.0190897 225.37752342 C505.5375785 232.36468247 500.23075489 239.46371926 494.98344517 246.6280117 C490.98762094 252.07890426 486.91990264 257.46011036 482.78080845 262.80330467 C479.14679656 267.49568635 475.55332507 272.21904992 471.9565897 276.94002342 C471.25550083 277.86025291 470.55441196 278.78048241 469.83207798 279.72859764 C465.68879801 285.17173015 461.5704686 290.631892 457.47612095 296.11189842 C454.08117901 300.63848767 450.63915778 305.12945559 447.2065897 309.62752342 C442.45190967 315.85870297 437.71154201 322.09933468 433.0190897 328.37752342 C427.70540933 335.48677316 422.32604228 342.54491825 416.9409647 349.60017967 C412.94308215 354.84167835 408.96568998 360.0973192 405.0190897 365.37752342 C399.7054033 372.48676868 394.32604233 379.54491819 388.9409647 386.60017967 C384.46511557 392.46832539 380.02217589 398.35959407 375.6038065 404.27107811 C370.69338983 410.83154711 365.72018739 417.34385299 360.74760532 423.85725975 C357.14719041 428.57562959 353.56545493 433.30591153 350.0190897 438.06502342 C332.89379604 460.88789577 332.89379604 460.88789577 317.0190897 464.37752342 C303.43793922 465.52244599 289.82833576 465.18024542 278.87455845 456.12361717 C272.75165618 450.36164388 267.72830704 443.79567336 262.7456522 437.04939842 C259.34806961 432.45190681 255.86551378 427.91933774 252.3940897 423.37752342 C247.02289536 416.34285748 241.6902251 409.28134148 236.3940897 402.19002342 C231.65161794 395.8417206 226.84366184 389.55263255 221.9565897 383.31502342 C216.59309586 376.46869901 211.40563834 369.51005297 206.27324009 362.48933983 C201.66976057 356.21192626 196.92298756 350.05823933 192.12407017 343.92952538 C187.91270319 338.54545468 183.78521019 333.10569474 179.69828892 327.626791 C175.50881833 322.0153267 171.2687496 316.44350723 167.0190897 310.87752342 C162.32660837 304.72987662 157.64924903 298.57225865 153.0190897 292.37752342 C148.45123288 286.26622908 143.83667833 280.19178865 139.2065897 274.12752342 C133.9446787 267.23502024 128.71318484 260.32127348 123.5190897 253.37752342 C118.38734445 246.51718319 113.21883102 239.68646902 108.0190897 232.87752342 C102.19258542 225.24784567 96.41391316 217.58428741 90.66362095 209.89705467 C86.14738312 203.86593623 81.59205344 197.86571772 77.0190897 191.87752342 C71.81934745 185.06857662 66.65094784 178.23778004 61.5190897 171.37752342 C56.40393121 164.54140217 51.25883563 157.72925544 46.0815897 150.94002342 C45.41917271 150.07135643 44.75675571 149.20268944 44.07426548 148.3076992 C40.70120781 143.88695559 37.32423257 139.46923061 33.94487095 135.05330467 C26.83640789 125.75565032 19.80323851 116.41168699 12.88139439 106.97420311 C8.49509883 101.00110802 4.00842581 95.1179151 -0.52876186 89.2583828 C-9.01094598 78.27204345 -17.40836996 67.21939962 -25.6684103 56.06502342 C-26.51387417 54.92879539 -26.51387417 54.92879539 -27.37641811 53.76961327 C-35.23473904 43.10746242 -39.08840134 36.06186474 -37.9809103 22.37752342 C-37.07253341 19.33704948 -35.79201956 16.96753632 -33.9809103 14.37752342 C-33.4446603 13.51127342 -32.9084103 12.64502342 -32.3559103 11.75252342 C-23.4158188 2.81243193 -12.25291522 -0.08687027 0 0 Z " fill="#017306" transform="translate(590.9809103012085,12.622476577758789)"/>
<path d="M0 0 C8.25038737 5.69594051 14.1698561 14.07519015 20.0546875 22.04296875 C23.45227009 26.64046037 26.93482592 31.17302943 30.40625 35.71484375 C35.77744434 42.74950969 41.1101146 49.8110257 46.40625 56.90234375 C51.14872176 63.25064658 55.95667786 69.53973462 60.84375 75.77734375 C66.20724384 82.62366816 71.39470136 89.58231421 76.52709961 96.60302734 C81.13057913 102.88044091 85.87735214 109.03412784 90.67626953 115.1628418 C94.88537849 120.54402571 99.01079338 125.98077146 103.09545898 131.45678711 C107.34937783 137.15466454 111.65448996 142.81255376 115.96875 148.46484375 C120.77838489 154.76722031 125.56742534 161.08249382 130.3125 167.43359375 C133.77384168 172.04871599 137.28218198 176.628314 140.78125 181.21484375 C144.96665897 186.70101967 149.15115587 192.18687161 153.28125 197.71484375 C157.34907354 203.15934944 161.47075372 208.56203264 165.59375 213.96484375 C170.83012805 220.82730593 176.04015694 227.707712 181.20678711 234.62280273 C185.31971184 240.11933491 189.48663891 245.57374616 193.65625 251.02734375 C198.80949097 257.76934787 203.89553479 264.5538006 208.90625 271.40234375 C213.99139978 278.35108944 219.21699169 285.17178144 224.53173828 291.94604492 C229.32517479 298.07664018 233.93975055 304.32680991 238.53125 310.609375 C242.52252022 316.05282613 246.61490776 321.40445777 250.78125 326.71484375 C256.18994738 333.61038516 261.42885436 340.61344222 266.60595703 347.68408203 C271.98105923 355.01540339 277.49450179 362.23447449 283.03466797 369.44140625 C291.59049943 380.57809937 300.11071082 391.74114419 308.46875 403.02734375 C309.31457642 404.16405518 309.31457642 404.16405518 310.17749023 405.32373047 C317.99947736 415.9366669 322.0228108 423.07228158 320.78125 436.71484375 C318.58027958 444.68128304 313.70883699 449.49316999 306.78125 453.71484375 C301.05585332 456.71953193 295.74841386 458.8382341 289.23073614 458.84249425 C287.857916 458.8470182 287.857916 458.8470182 286.45736212 458.85163355 C284.9516794 458.84897934 284.9516794 458.84897934 283.41557884 458.84627151 C282.34353051 458.84832415 281.27148219 458.85037678 280.16694754 458.85249162 C276.54409748 458.85818428 272.92128517 458.85670158 269.2984314 458.85528564 C266.68698222 458.85786798 264.07553345 458.86088077 261.46408522 458.86428905 C255.01999607 458.87187529 248.57591521 458.87406242 242.13182207 458.8746181 C234.41531359 458.87553113 226.69881279 458.88219687 218.98230762 458.88896492 C200.33019115 458.90503378 181.67807549 458.91092923 163.02595334 458.91571367 C154.20390275 458.91804875 145.38185281 458.92165131 136.55980273 458.92540905 C106.36681615 458.9382454 76.17382993 458.94896447 45.98084068 458.95241165 C44.08507358 458.95263328 42.18930648 458.95285507 40.29353938 458.953077 C38.39316561 458.95329764 36.49279184 458.95351813 34.59241807 458.95373845 C30.77987377 458.95418101 26.96732946 458.95462812 23.15478516 458.95507812 C21.73684846 458.95524221 21.73684846 458.95524221 20.29026658 458.95540961 C-10.36326151 458.95904053 -41.01676596 458.97496145 -71.67028499 458.99826849 C-104.0714089 459.02285929 -136.4725193 459.03658415 -168.87365282 459.03777957 C-172.42988166 459.03795103 -175.98611049 459.03816646 -179.54233932 459.038414 C-180.85582508 459.03849765 -180.85582508 459.03849765 -182.19584591 459.038583 C-196.29365155 459.03973411 -210.39143294 459.05076123 -224.48923039 459.06530106 C-238.65730775 459.07966078 -252.82535401 459.08290601 -266.99343665 459.07486108 C-275.4119573 459.07040232 -283.8303776 459.07427526 -292.24888509 459.09009959 C-298.53326696 459.1009876 -304.81754511 459.09621629 -311.10192494 459.08532771 C-313.64570942 459.08336258 -316.18950389 459.08648657 -318.7332743 459.09517208 C-322.18836821 459.10622372 -325.64295238 459.0988044 -329.098032 459.08678055 C-330.58264422 459.09817334 -330.58264422 459.09817334 -332.09724861 459.10979629 C-343.44067314 459.02446031 -353.9611179 455.61390544 -362.33203125 447.72265625 C-367.48215357 442.07138332 -369.50817613 437.66389392 -369.59375 429.90234375 C-369.62210938 428.74089844 -369.65046875 427.57945312 -369.6796875 426.3828125 C-368.60917528 417.86407545 -363.12081262 411.61198569 -357.96875 405.02734375 C-356.52852085 403.1615548 -355.08842032 401.29566657 -353.6484375 399.4296875 C-352.54580566 398.00825439 -352.54580566 398.00825439 -351.42089844 396.55810547 C-347.95667097 392.08533462 -344.52352222 387.58906071 -341.09375 383.08984375 C-340.43101074 382.22166016 -339.76827148 381.35347656 -339.08544922 380.45898438 C-334.10297323 373.91665993 -329.22324933 367.30352986 -324.36669922 360.66748047 C-319.84750709 354.51475256 -315.18011996 348.48945464 -310.46826172 342.48364258 C-306.28403749 337.13220314 -302.22685819 331.6991525 -298.21875 326.21484375 C-293.09354984 319.20201406 -287.83017184 312.31779435 -282.46875 305.484375 C-278.28447115 300.13260763 -274.22703162 294.69938981 -270.21875 289.21484375 C-265.09354984 282.20201406 -259.83017184 275.31779435 -254.46875 268.484375 C-250.28447115 263.13260763 -246.22703162 257.69938981 -242.21875 252.21484375 C-237.65192484 245.96604057 -232.99625687 239.80409769 -228.21875 233.71484375 C-222.7372388 226.7276847 -217.43041519 219.62864791 -212.18310547 212.46435547 C-208.18728124 207.01346291 -204.11956294 201.63225682 -199.98046875 196.2890625 C-196.34645686 191.59668082 -192.75298537 186.87331725 -189.15625 182.15234375 C-188.45516113 181.23211426 -187.75407227 180.31188477 -187.03173828 179.36376953 C-182.88845831 173.92063702 -178.7701289 168.46047517 -174.67578125 162.98046875 C-171.28083931 158.4538795 -167.83881808 153.96291158 -164.40625 149.46484375 C-159.65156998 143.2336642 -154.91120231 136.99303249 -150.21875 130.71484375 C-144.90506963 123.60559401 -139.52570258 116.54744892 -134.140625 109.4921875 C-130.14274246 104.25068882 -126.16535028 98.99504797 -122.21875 93.71484375 C-116.9050636 86.60559849 -111.52570263 79.54744898 -106.140625 72.4921875 C-101.66477587 66.62404178 -97.22183619 60.73277311 -92.8034668 54.82128906 C-87.89305013 48.26082006 -82.91984769 41.74851418 -77.94726562 35.23510742 C-74.34685071 30.51673758 -70.76511523 25.78645564 -67.21875 21.02734375 C-50.84892314 -0.78871828 -27.31518126 -15.82164548 0 0 Z " fill="#017306" transform="translate(1312.21875,237.28515625)"/>
<path d="M0 0 C8.25038737 5.69594051 14.1698561 14.07519015 20.0546875 22.04296875 C23.45227009 26.64046037 26.93482592 31.17302943 30.40625 35.71484375 C35.77744434 42.74950969 41.1101146 49.8110257 46.40625 56.90234375 C51.14872176 63.25064658 55.95667786 69.53973462 60.84375 75.77734375 C66.20724384 82.62366816 71.39470136 89.58231421 76.52709961 96.60302734 C81.13057913 102.88044091 85.87735214 109.03412784 90.67626953 115.1628418 C94.88537849 120.54402571 99.01079338 125.98077146 103.09545898 131.45678711 C107.34937783 137.15466454 111.65448996 142.81255376 115.96875 148.46484375 C120.77838489 154.76722031 125.56742534 161.08249382 130.3125 167.43359375 C133.77384168 172.04871599 137.28218198 176.628314 140.78125 181.21484375 C144.96665897 186.70101967 149.15115587 192.18687161 153.28125 197.71484375 C157.34907354 203.15934944 161.47075372 208.56203264 165.59375 213.96484375 C170.83012805 220.82730593 176.04015694 227.707712 181.20678711 234.62280273 C185.31971184 240.11933491 189.48663891 245.57374616 193.65625 251.02734375 C198.80949097 257.76934787 203.89553479 264.5538006 208.90625 271.40234375 C213.99139978 278.35108944 219.21699169 285.17178144 224.53173828 291.94604492 C229.32517479 298.07664018 233.93975055 304.32680991 238.53125 310.609375 C242.52252022 316.05282613 246.61490776 321.40445777 250.78125 326.71484375 C256.18994738 333.61038516 261.42885436 340.61344222 266.60595703 347.68408203 C271.98105923 355.01540339 277.49450179 362.23447449 283.03466797 369.44140625 C291.59049943 380.57809937 300.11071082 391.74114419 308.46875 403.02734375 C309.31457642 404.16405518 309.31457642 404.16405518 310.17749023 405.32373047 C317.99947736 415.9366669 322.0228108 423.07228158 320.78125 436.71484375 C318.58027958 444.68128304 313.70883699 449.49316999 306.78125 453.71484375 C301.05585332 456.71953193 295.74841386 458.8382341 289.23073614 458.84249425 C287.857916 458.8470182 287.857916 458.8470182 286.45736212 458.85163355 C284.9516794 458.84897934 284.9516794 458.84897934 283.41557884 458.84627151 C282.34353051 458.84832415 281.27148219 458.85037678 280.16694754 458.85249162 C276.54409748 458.85818428 272.92128517 458.85670158 269.2984314 458.85528564 C266.68698222 458.85786798 264.07553345 458.86088077 261.46408522 458.86428905 C255.01999607 458.87187529 248.57591521 458.87406242 242.13182207 458.8746181 C234.41531359 458.87553113 226.69881279 458.88219687 218.98230762 458.88896492 C200.33019115 458.90503378 181.67807549 458.91092923 163.02595334 458.91571367 C154.20390275 458.91804875 145.38185281 458.92165131 136.55980273 458.92540905 C106.36681615 458.9382454 76.17382993 458.94896447 45.98084068 458.95241165 C44.08507358 458.95263328 42.18930648 458.95285507 40.29353938 458.953077 C38.39316561 458.95329764 36.49279184 458.95351813 34.59241807 458.95373845 C30.77987377 458.95418101 26.96732946 458.95462812 23.15478516 458.95507812 C21.73684846 458.95524221 21.73684846 458.95524221 20.29026658 458.95540961 C-10.36326151 458.95904053 -41.01676596 458.97496145 -71.67028499 458.99826849 C-104.0714089 459.02285929 -136.4725193 459.03658415 -168.87365282 459.03777957 C-172.42988166 459.03795103 -175.98611049 459.03816646 -179.54233932 459.038414 C-180.85582508 459.03849765 -180.85582508 459.03849765 -182.19584591 459.038583 C-196.29365155 459.03973411 -210.39143294 459.05076123 -224.48923039 459.06530106 C-238.65730775 459.07966078 -252.82535401 459.08290601 -266.99343665 459.07486108 C-275.4119573 459.07040232 -283.8303776 459.07427526 -292.24888509 459.09009959 C-298.53326696 459.1009876 -304.81754511 459.09621629 -311.10192494 459.08532771 C-313.64570942 459.08336258 -316.18950389 459.08648657 -318.7332743 459.09517208 C-322.18836821 459.10622372 -325.64295238 459.0988044 -329.098032 459.08678055 C-330.58264422 459.09817334 -330.58264422 459.09817334 -332.09724861 459.10979629 C-343.44067314 459.02446031 -353.9611179 455.61390544 -362.33203125 447.72265625 C-367.48215357 442.07138332 -369.50817613 437.66389392 -369.59375 429.90234375 C-369.62210937 428.74089844 -369.65046875 427.57945312 -369.6796875 426.3828125 C-368.60917528 417.86407545 -363.12081262 411.61198569 -357.96875 405.02734375 C-356.52852085 403.1615548 -355.08842032 401.29566657 -353.6484375 399.4296875 C-352.54580566 398.00825439 -352.54580566 398.00825439 -351.42089844 396.55810547 C-347.95667097 392.08533462 -344.52352222 387.58906071 -341.09375 383.08984375 C-340.43101074 382.22166016 -339.76827148 381.35347656 -339.08544922 380.45898438 C-334.10297323 373.91665993 -329.22324933 367.30352986 -324.36669922 360.66748047 C-319.84750709 354.51475256 -315.18011996 348.48945464 -310.46826172 342.48364258 C-306.28403749 337.13220314 -302.22685819 331.6991525 -298.21875 326.21484375 C-293.09354984 319.20201406 -287.83017184 312.31779435 -282.46875 305.484375 C-278.28447115 300.13260763 -274.22703162 294.69938981 -270.21875 289.21484375 C-265.09354984 282.20201406 -259.83017184 275.31779435 -254.46875 268.484375 C-250.28447115 263.13260763 -246.22703162 257.69938981 -242.21875 252.21484375 C-237.65192484 245.96604057 -232.99625687 239.80409769 -228.21875 233.71484375 C-222.7372388 226.7276847 -217.43041519 219.62864791 -212.18310547 212.46435547 C-208.18728124 207.01346291 -204.11956294 201.63225682 -199.98046875 196.2890625 C-196.34645686 191.59668082 -192.75298537 186.87331725 -189.15625 182.15234375 C-188.45516113 181.23211426 -187.75407227 180.31188477 -187.03173828 179.36376953 C-182.88845831 173.92063702 -178.7701289 168.46047517 -174.67578125 162.98046875 C-171.28083931 158.4538795 -167.83881808 153.96291158 -164.40625 149.46484375 C-159.65156998 143.2336642 -154.91120231 136.99303249 -150.21875 130.71484375 C-144.90506963 123.60559401 -139.52570258 116.54744892 -134.140625 109.4921875 C-130.14274246 104.25068882 -126.16535028 98.99504797 -122.21875 93.71484375 C-116.9050636 86.60559849 -111.52570263 79.54744898 -106.140625 72.4921875 C-101.66477587 66.62404178 -97.22183619 60.73277311 -92.8034668 54.82128906 C-87.89305013 48.26082006 -82.91984769 41.74851418 -77.94726562 35.23510742 C-74.34685071 30.51673758 -70.76511523 25.78645564 -67.21875 21.02734375 C-50.84892314 -0.78871828 -27.31518126 -15.82164548 0 0 Z " fill="#017306" transform="translate(477.21875,36.28515625)"/>
<path d="M0 0 C0.8376877 -0.00346153 1.67537541 -0.00692307 2.53844759 -0.01048949 C5.33402942 -0.01840456 8.12908862 -0.00499316 10.92464352 0.00837994 C12.95356442 0.00707112 14.98248483 0.00444329 17.01140255 0.00061244 C22.57790472 -0.00608939 28.14423343 0.00589611 33.71071351 0.02094662 C39.7167463 0.033907 45.72276938 0.02951752 51.72881222 0.0272398 C62.13177252 0.02566707 72.53468634 0.03497143 82.93763065 0.05195332 C93.84613532 0.06971477 104.75461746 0.08125325 115.66313648 0.08451176 C116.34182775 0.08471798 117.02051901 0.08492419 117.71977668 0.08513666 C121.16661804 0.08615169 124.61345942 0.08705583 128.06030082 0.08791729 C152.46341552 0.09421566 176.86650082 0.11441973 201.26959896 0.14282513 C224.97434998 0.17038576 248.67909294 0.19163301 272.38385677 0.20434856 C273.11476043 0.20474314 273.8456641 0.20513772 274.59871635 0.20554426 C281.93886568 0.20949987 289.27901507 0.21332731 296.61916451 0.21706083 C311.57140428 0.22466913 326.52364352 0.23313288 341.47588253 0.24211407 C342.16333649 0.24252594 342.85079046 0.24293781 343.55907636 0.24336216 C389.45274933 0.27095619 435.34640517 0.31855333 481.24005795 0.36914349 C481.56117315 34.05968207 481.80753035 67.74983696 481.95497256 101.44156839 C481.97248045 105.42776454 481.99060115 109.41395768 482.00910091 113.40014935 C482.01277326 114.19365959 482.01644561 114.98716984 482.02022924 115.80472585 C482.08099026 128.61871631 482.19128409 141.43181889 482.32019709 154.2452843 C482.4515633 167.41335509 482.5289735 180.58096399 482.55729687 193.74966305 C482.576417 201.86260776 482.63657788 209.97304233 482.75088848 218.08521333 C482.82544646 223.6637321 482.84713816 229.24097188 482.82907723 234.81995157 C482.82018992 238.03023747 482.84073654 241.23531063 482.90893459 244.44500446 C483.25401612 261.53697096 480.56736365 271.73930144 468.91995358 284.50349844 C466.55608719 287.12874225 464.47598462 289.91257883 462.36505795 292.74414349 C461.58130795 293.75605755 460.79755795 294.76797161 459.99005795 295.81054974 C451.15871602 307.21435452 442.45395679 318.7179827 433.81867123 330.27075481 C428.97461486 336.74278511 424.06674112 343.16576346 419.16193295 349.59179974 C415.1640504 354.83329841 411.18665822 360.08893927 407.24005795 365.36914349 C401.92637155 372.47838875 396.54701057 379.53653826 391.16193295 386.59179974 C386.68608381 392.45994545 382.24314413 398.35121413 377.82477474 404.26269817 C372.91435808 410.82316718 367.94115564 417.33547305 362.96857357 423.84887981 C359.36815865 428.56724965 355.78642317 433.2975316 352.24005795 438.05664349 C335.11476428 460.87951584 335.11476428 460.87951584 319.24005795 464.36914349 C305.65890746 465.51406606 292.049304 465.17186548 281.0955267 456.11523724 C274.97262442 450.35326394 269.94927528 443.78729342 264.96662045 437.04101849 C261.56903786 432.44352687 258.08648202 427.9109578 254.61505795 423.36914349 C249.2438636 416.33447754 243.91119334 409.27296154 238.61505795 402.18164349 C233.87258619 395.83334066 229.06463008 389.54425261 224.17755795 383.30664349 C218.81406411 376.46031907 213.62660658 369.50167303 208.49420834 362.48095989 C203.89072881 356.20354632 199.14395581 350.04985939 194.34503841 343.92114544 C190.13367144 338.53707474 186.00617843 333.09731481 181.91925716 327.61841106 C177.72978658 322.00694676 173.48971785 316.43512729 169.24005795 310.86914349 C164.54757662 304.72149668 159.87021728 298.56387872 155.24005795 292.36914349 C150.67220112 286.25784914 146.05764658 280.18340871 141.42755795 274.11914349 C136.16564695 267.2266403 130.93415309 260.31289355 125.74005795 253.36914349 C120.60831269 246.50880325 115.43979927 239.67808908 110.24005795 232.86914349 C104.41355367 225.23946574 98.6348814 217.57590748 92.8845892 209.88867474 C88.36835136 203.85755629 83.81302168 197.85733778 79.24005795 191.86914349 C74.0403157 185.06019668 68.87191608 178.2294001 63.74005795 171.36914349 C58.62489946 164.53302223 53.47980388 157.72087551 48.30255795 150.93164349 C47.64014095 150.06297649 46.97772396 149.1943095 46.29523373 148.29931927 C42.92217606 143.87857565 39.54520082 139.46085067 36.1658392 135.04492474 C29.05737613 125.74727038 22.02420676 116.40330705 15.10236263 106.96582317 C10.71606708 100.99272808 6.22939406 95.10953516 1.69220638 89.25000286 C-6.78997773 78.26366351 -15.18740171 67.21101968 -23.44744205 56.05664349 C-24.29290592 54.92041546 -24.29290592 54.92041546 -25.15544987 53.76123333 C-33.01377079 43.09908249 -36.86743309 36.0534848 -35.75994205 22.36914349 C-34.85156517 19.32866955 -33.57105132 16.95915638 -31.75994205 14.36914349 C-31.22369205 13.50289349 -30.68744205 12.63664349 -30.13494205 11.74414349 C-22.02674908 3.63595051 -11.2800727 -0.1165906 0 0 Z " fill="#017306" transform="translate(1438.7599420547485,194.63085651397705)"/>
<path d="M0 0 C2.11527247 -0.01351451 4.23051038 -0.03391032 6.34565735 -0.06062317 C12.06199419 -0.11198949 17.77343986 -0.06355719 23.4894197 0.00641656 C29.48297244 0.06575931 35.47628926 0.04261606 41.470047 0.03129578 C51.5303163 0.02507254 61.58866515 0.08269001 71.6484375 0.1796875 C83.26797379 0.291053 94.88460561 0.30673073 106.50455207 0.2700513 C117.70156938 0.23646196 128.89755963 0.26529958 140.09444618 0.32430077 C144.85160031 0.34859365 149.60809259 0.3520847 154.36528587 0.33889198 C159.9684871 0.32655801 165.56868553 0.36928941 171.17123222 0.45408821 C173.22335236 0.47656552 175.27577377 0.48053965 177.32795334 0.46437454 C192.80072174 0.36001622 192.80072174 0.36001622 198.10129738 4.37781334 C200.40369828 7.14794125 202.18739942 9.85901003 203.95239258 12.9909668 C205.0824411 14.53809553 206.22879847 16.07365539 207.40161133 17.58862305 C208.48334593 19.07522795 209.56273413 20.56354278 210.63989258 22.0534668 C215.35160023 28.51065675 220.14867737 34.88532815 225.07739258 41.1784668 C229.87985563 47.3113016 234.60931399 53.48922166 239.26660156 59.73291016 C243.52052041 65.43078758 247.82563254 71.08867681 252.13989258 76.7409668 C256.95347849 83.04852063 261.74632194 89.36907492 266.49536133 95.7253418 C269.89030327 100.25193105 273.3323245 104.74289896 276.76489258 109.2409668 C282.00127063 116.10342897 287.21129951 122.98383505 292.37792969 129.89892578 C296.49085442 135.39545796 300.65778148 140.84986921 304.82739258 146.3034668 C309.98063355 153.04547091 315.06667737 159.82992364 320.07739258 166.6784668 C325.16254236 173.62721249 330.38813426 180.44790449 335.70288086 187.22216797 C340.49631737 193.35276322 345.11089313 199.60293296 349.70239258 205.88549805 C353.6936628 211.32894918 357.78605034 216.68058081 361.95239258 221.9909668 C367.36108996 228.88650821 372.59999693 235.88956527 377.77709961 242.96020508 C383.15220181 250.29152644 388.66564437 257.51059754 394.20581055 264.7175293 C402.82514096 275.93687579 411.40582582 287.18462671 419.82739258 298.5534668 C420.71092407 299.74045166 420.71092407 299.74045166 421.61230469 300.95141602 C422.42646851 302.05573975 422.42646851 302.05573975 423.25708008 303.18237305 C423.96840088 304.14445679 423.96840088 304.14445679 424.6940918 305.12597656 C425.95239258 306.9909668 425.95239258 306.9909668 427.95239258 310.9909668 C202.89239258 310.9909668 -22.16760742 310.9909668 -254.04760742 310.9909668 C-247.33216027 300.91779607 -247.33216027 300.91779607 -243.67260742 296.2409668 C-242.80487888 295.12419948 -241.9377347 294.00697796 -241.07104492 292.8894043 C-240.59505859 292.27677734 -240.11907227 291.66415039 -239.62866211 291.03295898 C-231.25945478 280.2238098 -222.99601491 269.3352961 -214.92260742 258.3034668 C-209.8373648 251.35478637 -204.61186837 244.53403247 -199.29711914 237.75976562 C-195.11289491 232.40832618 -191.05571561 226.97527555 -187.04760742 221.4909668 C-181.92240726 214.47813711 -176.65902926 207.5939174 -171.29760742 200.76049805 C-167.11332857 195.40873067 -163.05588904 189.97551285 -159.04760742 184.4909668 C-153.92240726 177.47813711 -148.65902926 170.5939174 -143.29760742 163.76049805 C-139.11332857 158.40873067 -135.05588904 152.97551285 -131.04760742 147.4909668 C-126.48078226 141.24216362 -121.82511429 135.08022074 -117.04760742 128.9909668 C-111.56609622 122.00380775 -106.25927261 114.90477095 -101.01196289 107.74047852 C-97.01613867 102.28958596 -92.94842036 96.90837986 -88.80932617 91.56518555 C-85.17531428 86.87280387 -81.58184279 82.1494403 -77.98510742 77.4284668 C-77.28401855 76.5082373 -76.58292969 75.58800781 -75.8605957 74.63989258 C-71.71731573 69.19676007 -67.59898633 63.73659822 -63.50463867 58.2565918 C-60.10969636 53.73000204 -56.66762933 49.23907053 -53.23510742 44.7409668 C-48.4002226 38.40345362 -43.57568343 32.05895068 -38.79760742 25.6784668 C-38.38816684 25.14985481 -37.97872626 24.62124282 -37.55687839 24.07661229 C-35.01258983 20.75376156 -32.67861943 17.44581113 -30.60103893 13.8102293 C-22.61174132 0.50310326 -14.79477178 -0.31476333 0 0 Z " fill="#017206" transform="translate(1180.047607421875,769.009033203125)"/>
<path d="M0 0 C1.07781755 -0.00436032 2.1556351 -0.00872064 3.26611379 -0.0132131 C6.87859778 -0.02416343 10.49069965 -0.01374796 14.10318089 -0.00342751 C16.71894687 -0.00688414 19.33471141 -0.01164874 21.95047289 -0.01760924 C27.63813166 -0.02843288 33.32570497 -0.02812266 39.01336765 -0.02046776 C47.4711924 -0.00911552 55.92894512 -0.01492403 64.3867694 -0.02409268 C79.49310908 -0.03988906 94.5994107 -0.03852101 109.70575401 -0.02985594 C122.92617075 -0.02230987 136.14657354 -0.02033889 149.366992 -0.02392387 C150.24386595 -0.02415303 151.12073991 -0.02438218 152.0241858 -0.02461828 C155.58369616 -0.0255523 159.14320652 -0.0265075 162.70271687 -0.02749758 C196.09614865 -0.03667528 229.48955619 -0.02835322 262.88298423 -0.01220688 C292.55035464 0.00202876 322.21768642 0.00075717 351.8850565 -0.01358986 C385.21582509 -0.02965461 418.54657226 -0.03602316 451.87734419 -0.02675307 C455.43068667 -0.02579092 458.98402915 -0.0248524 462.53737164 -0.02392387 C463.41229631 -0.02368664 464.28722098 -0.02344941 465.18865852 -0.02320499 C478.39999869 -0.0197928 491.61132337 -0.023783 504.8226614 -0.03136253 C519.84557155 -0.03993842 534.86843767 -0.0377999 549.89134233 -0.0215203 C558.29877443 -0.01271006 566.70611119 -0.01213837 575.11354081 -0.02345882 C581.38946966 -0.03097715 587.66528601 -0.02282508 593.94120104 -0.0085351 C596.48146847 -0.00517971 599.02174864 -0.00689831 601.5620079 -0.01416247 C605.01230025 -0.02327326 608.46207307 -0.01393929 611.91233826 0 C612.9006505 -0.0070235 613.88896275 -0.014047 614.90722385 -0.02128333 C626.24602529 0.07039048 636.76490772 3.48171416 645.13237095 11.36971092 C650.28249326 17.02098386 652.30851583 21.42847325 652.3940897 29.19002342 C652.42244907 30.35146873 652.45080845 31.51291405 652.4800272 32.70955467 C651.40951498 41.22829172 645.92115231 47.48038148 640.7690897 54.06502342 C639.32886055 55.93081237 637.88876002 57.7967006 636.4487772 59.66267967 C635.34614536 61.08411278 635.34614536 61.08411278 634.22123814 62.5342617 C630.75701067 67.00703255 627.32386191 71.50330646 623.8940897 76.00252342 C622.89998081 77.30479881 622.89998081 77.30479881 621.88578892 78.6333828 C616.90331293 85.17570724 612.02358903 91.78883731 607.16703892 98.4248867 C602.64784679 104.57761461 597.98045966 110.60291253 593.26860142 116.60872459 C589.08437719 121.96016404 585.02719789 127.39321467 581.0190897 132.87752342 C575.89388954 139.89035311 570.63051154 146.77457282 565.2690897 153.60799217 C561.08481084 158.95975955 557.02737132 164.39297737 553.0190897 169.87752342 C548.45226053 176.12633209 543.79645238 182.28815268 539.0190897 188.37752342 C533.6651981 195.2050456 528.45633117 202.1245797 523.3394022 209.13142967 C522.26880872 210.59687075 521.16538595 212.03877672 520.03381348 213.45766068 C518.39279858 215.83592132 517.43435488 217.68622805 516.35483742 220.30252838 C513.8792855 225.49784564 511.03820051 229.41367115 506.0190897 232.37752342 C494.8176043 235.41724096 482.64393626 234.57705251 471.13944185 234.43980002 C466.28631608 234.39934261 461.43403316 234.45135681 456.58102512 234.49132347 C447.08524319 234.55465999 437.59154092 234.53203015 428.09577148 234.47867118 C420.37717223 234.43701755 412.65914319 234.42745969 404.94044781 234.44069862 C403.84065586 234.44257291 402.74086392 234.44444719 401.60774495 234.44637827 C399.37334025 234.45034939 397.1389357 234.4544054 394.90453131 234.45854534 C373.96808075 234.49379896 353.03277206 234.43263802 332.0965637 234.33730771 C314.14182889 234.25764158 296.18849508 234.25602087 278.23368931 234.31258202 C257.36925954 234.37824826 236.50562753 234.39890193 215.64113528 234.34548771 C213.41539557 234.3398878 211.18965575 234.33433212 208.96391582 234.32882118 C207.86888762 234.32607135 206.77385942 234.32332152 205.64564855 234.32048836 C197.93804367 234.30411237 190.23087563 234.31943413 182.52331448 234.34678841 C173.12751139 234.37911662 163.73339466 234.36093993 154.33786958 234.27875386 C149.54578402 234.23804568 144.75639879 234.21943785 139.96426487 234.2617321 C135.57239309 234.29982975 131.1858138 234.2727524 126.7945146 234.19470443 C125.21064337 234.17774552 123.62630518 234.18410036 122.04267966 234.21674846 C110.55764569 234.43442512 110.55764569 234.43442512 106.32415397 231.00417724 C103.12255956 227.67787476 100.56414392 223.99015499 98.11643524 220.0884098 C96.54186476 217.63347553 94.74783432 215.36820697 92.93705845 213.08455467 C91.69210298 211.45416255 90.44862119 209.82264412 89.2065897 208.19002342 C88.53063755 207.30274559 87.8546854 206.41546776 87.15824986 205.50130272 C82.08970514 198.82995073 77.11629632 192.09280935 72.16825962 185.33186913 C67.64871083 179.178532 62.98089263 173.15268618 58.26860142 167.14632225 C53.47516491 161.015727 48.86058914 154.76555726 44.2690897 148.48299217 C40.27781948 143.03954104 36.18543194 137.68790941 32.0190897 132.37752342 C26.61039232 125.48198201 21.37148534 118.47892495 16.19438267 111.40828514 C10.81928047 104.07696378 5.30583791 96.85789268 -0.23432827 89.65096092 C-8.79015973 78.51426781 -17.31037112 67.35122299 -25.6684103 56.06502342 C-26.23229458 55.30721581 -26.79617886 54.54940819 -27.37715054 53.7686367 C-35.23516777 43.10681431 -39.08836177 36.06137577 -37.9809103 22.37752342 C-37.07253341 19.33704948 -35.79201956 16.96753632 -33.9809103 14.37752342 C-33.4446603 13.51127342 -32.9084103 12.64502342 -32.3559103 11.75252342 C-23.4158188 2.81243193 -12.25291522 -0.08687027 0 0 Z " fill="#017406" transform="translate(173.9809103012085,847.6224765777588)"/>
<path d="M0 0 C1.54036373 -0.01408715 1.54036373 -0.01408715 3.11184591 -0.02845889 C4.25383257 -0.03373149 5.39581922 -0.03900408 6.57241154 -0.04443645 C7.7749418 -0.05375767 8.97747207 -0.06307888 10.21644264 -0.07268256 C13.56974036 -0.09739307 16.92300672 -0.11746602 20.2763437 -0.13540661 C23.14899825 -0.1515458 26.02162312 -0.17134925 28.8942548 -0.19109217 C56.13808798 -0.37741211 83.38263912 -0.4713573 110.62697601 -0.54730988 C114.17568801 -0.55737848 117.72439942 -0.56762939 121.27311039 -0.57805157 C122.15514376 -0.58063379 123.03717712 -0.58321601 123.94593877 -0.58587649 C138.22400321 -0.62897287 152.50143126 -0.71736945 166.77915191 -0.82340149 C181.43547346 -0.93134244 196.09146476 -0.99374144 210.74817425 -1.0131647 C218.97844499 -1.02531354 227.20754297 -1.05802414 235.43741512 -1.14275837 C242.44956042 -1.21493767 249.46039087 -1.24641164 256.47290122 -1.22496215 C260.04984885 -1.21530478 263.62394802 -1.22490519 267.20042515 -1.28735638 C289.76049936 -1.66138891 289.76049936 -1.66138891 295.11168957 2.74938107 C297.77548401 5.56587057 299.52578091 8.70462453 301.28214359 12.15656757 C302.48232828 13.80180383 303.70650774 15.43024672 304.96964359 17.02766132 C306.07731557 18.5472478 307.18148031 20.06939692 308.28214359 21.59406757 C309.49205927 23.25236568 310.70299935 24.90991684 311.91495609 26.56672382 C312.49277836 27.35708027 313.07060062 28.14743671 313.66593266 28.96174335 C316.55834789 32.88966072 319.54522159 36.74150381 322.53214359 40.59797382 C331.36506606 52.00381954 340.0731545 63.50837258 348.70792484 75.0647707 C352.82067015 80.56129492 356.987602 86.0155609 361.15714359 91.46906757 C366.31038457 98.21107169 371.39642839 104.99552442 376.40714359 111.84406757 C381.49229337 118.79281326 386.71788528 125.61350527 392.03263187 132.38776875 C396.82606838 138.518364 401.44064415 144.76853373 406.03214359 151.05109882 C410.02341382 156.49454995 414.11580135 161.84618159 418.28214359 167.15656757 C423.68631134 174.04633416 428.92149562 181.04305891 434.09366703 188.10822773 C441.01325415 197.54738377 448.14299506 206.82416366 455.31729984 216.07063007 C455.78748539 216.67793964 456.25767094 217.28524921 456.74210453 217.9109621 C458.00956958 219.54676989 459.2804988 221.17989191 460.55167484 222.81281757 C462.28214359 225.15656757 462.28214359 225.15656757 462.28214359 226.15656757 C252.07214359 226.15656757 41.86214359 226.15656757 -174.71785641 226.15656757 C-170.221374 218.28772335 -170.221374 218.28772335 -167.68660641 215.09797382 C-167.12989254 214.39116474 -166.57317867 213.68435566 -165.99959469 212.95612812 C-165.41162106 212.21789814 -164.82364742 211.47966816 -164.21785641 210.71906757 C-162.95370885 209.11318306 -161.69070723 207.50639586 -160.42879391 205.89875507 C-159.8006982 205.09921406 -159.1726025 204.29967304 -158.52547359 203.47590351 C-155.91935798 200.13202205 -153.37551596 196.74374802 -150.84285641 193.34406757 C-146.11205579 187.00069498 -141.33156087 180.69682353 -136.53035641 174.40656757 C-132.407273 169.00382396 -128.28567921 163.60107228 -124.21785641 158.15656757 C-120.15003287 152.71206188 -116.02835269 147.30937868 -111.90535641 141.90656757 C-106.66897836 135.0441054 -101.45894947 128.16369932 -96.2923193 121.24860859 C-92.17939457 115.75207641 -88.0124675 110.29766516 -83.84285641 104.84406757 C-78.68961543 98.10206346 -73.60357161 91.31761073 -68.59285641 84.46906757 C-63.50770663 77.52032188 -58.28211472 70.69962988 -52.96736813 63.9253664 C-48.7831439 58.57392696 -44.7259646 53.14087632 -40.71785641 47.65656757 C-35.60192912 40.656426 -30.34959096 33.78341079 -24.99642086 26.96345234 C-18.78245557 19.01797093 -12.82984954 10.88319359 -6.89437008 2.72858906 C-4.69707876 -0.20736421 -3.68893039 0.02529195 0 0 Z " fill="#017106" transform="translate(310.7178564071655,559.8434324264526)"/>
<path d="M0 0 C151.8 0 303.6 0 460 0 C460 154.0051398 460 154.0051398 438.75 181.44140625 C429.91865807 192.84521103 421.21389884 204.34883922 412.57861328 215.90161133 C407.73455691 222.37364163 402.82668318 228.79661997 397.921875 235.22265625 C393.92399246 240.46415493 389.94660028 245.71979578 386 251 C380.69227995 258.10126282 375.31992308 265.15223818 369.93945312 272.19848633 C365.30657818 278.27051202 360.70492091 284.36458342 356.15625 290.5 C355.29429808 291.65696523 354.41006799 292.79772396 353.50257874 293.91932678 C351.90907331 295.98265576 351.90907331 295.98265576 350.85765076 298.50340271 C348.92756131 301.99380649 347.33004633 303.7452035 344 306 C335.88596795 308.067513 327.12142414 307.45622629 318.81640625 307.3984375 C316.31589905 307.41026107 313.81540319 307.42475692 311.31492615 307.44180298 C305.41081277 307.46857605 299.50845323 307.44245697 293.60449117 307.39869273 C288.90810071 307.36931439 284.21438307 307.39619151 279.51831055 307.45458984 C273.02442822 307.53444554 266.53325683 307.55528769 260.03895378 307.52791214 C257.57065153 307.52494515 255.10225524 307.54024593 252.6341877 307.5744133 C232.34195976 307.80973818 232.34195976 307.80973818 227.5723877 303.40435791 C225.25938438 300.35429314 223.63635952 297.44832585 222 294 C220.75534423 292.28338421 219.47693829 290.59008084 218.1484375 288.9375 C217.53242676 288.13119141 216.91641602 287.32488281 216.28173828 286.49414062 C215.65251465 285.67107422 215.02329102 284.84800781 214.375 284 C208.92360174 276.85901731 203.50668014 269.69366127 198.125 262.5 C193.36925041 256.14456145 188.5796853 249.82052914 183.7265625 243.5390625 C175.21721828 232.51425394 166.7926513 221.42228663 158.45703125 210.265625 C155.06208931 205.73903575 151.62006808 201.24806783 148.1875 196.75 C143.43281994 190.5188204 138.69245767 184.27818475 134 178 C129.4321483 171.88870183 124.8175886 165.81426518 120.1875 159.75 C114.925589 152.85749681 109.69409514 145.94375006 104.5 139 C99.36825475 132.13965976 94.19974132 125.3089456 89 118.5 C83.17349572 110.87032225 77.39482346 103.20676399 71.64453125 95.51953125 C67.12829342 89.4884128 62.57296374 83.4881943 58 77.5 C52.80025776 70.69105319 47.63185814 63.86025662 42.5 57 C37.38484049 50.16387738 32.23961732 43.3518313 27.0625 36.5625 C26.40805908 35.70398438 25.75361816 34.84546875 25.0793457 33.9609375 C21.5724142 29.36348559 18.05853585 24.77145134 14.5390625 20.18359375 C13.44646118 18.75648071 13.44646118 18.75648071 12.33178711 17.30053711 C10.93636334 15.4780498 9.53884766 13.65716167 8.13891602 11.83813477 C7.19423462 10.60341431 7.19423462 10.60341431 6.23046875 9.34375 C5.67770264 8.62380859 5.12493652 7.90386719 4.55541992 7.16210938 C2.90311848 4.86532997 1.45569532 2.42615887 0 0 Z " fill="#017106" transform="translate(1460,774)"/>
<path d="M0 0 C1.84093448 -0.00611196 3.68185698 -0.0183829 5.52271491 -0.03624833 C10.56173576 -0.06745374 15.59656569 -0.01171473 20.63505256 0.05864453 C26.07525911 0.11924099 31.51523927 0.09863439 36.95568848 0.0880127 C46.37478098 0.08068011 55.7925133 0.12451261 65.21126366 0.20334244 C78.82886071 0.31724 92.44580169 0.35359432 106.06382344 0.37117432 C128.15903375 0.40179695 150.25352684 0.49479502 172.3483429 0.62741089 C193.80826563 0.75606705 215.26799437 0.8552007 236.72822571 0.91452026 C237.72109676 0.91728231 237.72109676 0.91728231 238.73402582 0.92010016 C246.04107785 0.94039177 253.34813192 0.95987736 260.65518701 0.97903275 C315.71118272 1.12411049 370.76583784 1.38216926 425.82124329 1.68356323 C425.82124329 53.16356323 425.82124329 104.64356323 425.82124329 157.68356323 C329.59517137 157.78292085 329.59517137 157.78292085 282.09526062 157.81059265 C281.03156989 157.81121391 281.03156989 157.81121391 279.94639047 157.81184772 C264.5349381 157.82082656 249.12348545 157.82913709 233.71203236 157.83675922 C226.15419765 157.84050121 218.59636303 157.84439088 211.03852844 157.84835815 C210.28643532 157.84875043 209.53434219 157.84914271 208.75945836 157.84954687 C184.38443303 157.86232962 160.00942858 157.88486259 135.6344159 157.91245489 C110.58474485 157.94075939 85.53508536 157.95922112 60.48539859 157.9653082 C56.94684808 157.96617266 53.40829762 157.96714957 49.86974716 157.96819496 C48.82509674 157.96849837 48.82509674 157.96849837 47.75934228 157.9688079 C36.55123222 157.97235227 25.34315789 157.98626435 14.1350624 158.00405933 C2.86559638 158.02173029 -8.40383493 158.02822208 -19.67331772 158.02406736 C-25.77875105 158.02214341 -31.88407957 158.02512008 -37.98949432 158.04117966 C-43.57958415 158.05577646 -49.16949865 158.05651686 -54.75959654 158.04625992 C-56.78129893 158.04499218 -58.80301226 158.04879946 -60.82469313 158.05821278 C-75.65676868 158.12325482 -88.8756558 157.45358442 -100.29203796 146.69137573 C-105.44216028 141.0401028 -107.46818284 136.6326134 -107.55375671 128.87106323 C-107.58211609 127.70961792 -107.61047546 126.54817261 -107.63969421 125.35153198 C-106.569182 116.83279493 -101.08081933 110.58070517 -95.92875671 103.99606323 C-94.48852756 102.13027429 -93.04842703 100.26438605 -91.60844421 98.39840698 C-90.87335632 97.45078491 -90.13826843 96.50316284 -89.38090515 95.52682495 C-85.91667769 91.0540541 -82.48352893 86.5577802 -79.05375671 82.05856323 C-78.39101746 81.19037964 -77.7282782 80.32219604 -77.04545593 79.42770386 C-72.06297994 72.88537941 -67.18325605 66.27224934 -62.32670593 59.63619995 C-57.80968658 53.48643021 -53.14496546 47.46368338 -48.43486023 41.46115112 C-43.63128616 35.31835809 -38.98785341 29.06731096 -34.41117859 22.75387573 C-33.35475689 21.3037323 -32.28052317 19.86639498 -31.18875486 18.44267285 C-29.68893184 16.38387686 -28.36951832 14.37247206 -27.05569237 12.2026509 C-19.68570661 0.70011329 -13.10323068 -0.3244457 0 0 Z " fill="#017306" transform="translate(1494.1787567138672,-1.683563232421875)"/>
<path d="M0 0 C44.01375 -0.061875 88.0275 -0.12375 133.375 -0.1875 C147.27544434 -0.21481201 161.17588867 -0.24212402 175.49755859 -0.27026367 C192.46411133 -0.28381348 192.46411133 -0.28381348 200.40542603 -0.28633118 C205.95502538 -0.28912752 211.50453403 -0.30012669 217.05410767 -0.31672668 C223.45774431 -0.33585298 229.86129402 -0.34450076 236.26495943 -0.34033485 C239.53917289 -0.3385313 242.81315339 -0.34303098 246.08734012 -0.35764539 C249.59943038 -0.37259267 253.11103678 -0.36896068 256.62313843 -0.36076355 C257.63649073 -0.36950154 258.64984303 -0.37823954 259.69390297 -0.38724232 C271.12000644 -0.31568958 281.67283166 3.03538659 290.11328125 10.9921875 C295.26340357 16.64346043 297.28942613 21.05094983 297.375 28.8125 C297.40335937 29.97394531 297.43171875 31.13539062 297.4609375 32.33203125 C296.39042528 40.8507683 290.90206262 47.10285806 285.75 53.6875 C284.30977085 55.55328895 282.86967032 57.41917718 281.4296875 59.28515625 C280.69459961 60.23277832 279.95951172 61.18040039 279.20214844 62.15673828 C275.73792097 66.62950913 272.30477222 71.12578304 268.875 75.625 C268.21226074 76.49318359 267.54952148 77.36136719 266.86669922 78.25585938 C261.88422323 84.79818382 257.00449933 91.41131389 252.14794922 98.04736328 C247.62875709 104.20009119 242.96136996 110.22538911 238.24951172 116.23120117 C234.06528749 121.58264061 230.00810819 127.01569125 226 132.5 C220.87479984 139.51282969 215.61142184 146.3970494 210.25 153.23046875 C206.06572115 158.58223612 202.00828162 164.01545394 198 169.5 C192.87479984 176.51282969 187.61142184 183.3970494 182.25 190.23046875 C178.06572115 195.58223612 174.00828162 201.01545394 170 206.5 C165.43317484 212.74880318 160.77750687 218.91074606 156 225 C150.5184888 231.98715905 145.21166519 239.08619584 139.96435547 246.25048828 C135.96853124 251.70138084 131.90081294 257.08258693 127.76171875 262.42578125 C124.12770686 267.11816293 120.53423537 271.8415265 116.9375 276.5625 C116.23641113 277.48272949 115.53532227 278.40295898 114.81298828 279.35107422 C110.66970831 284.79420673 106.5513789 290.25436858 102.45703125 295.734375 C99.06208931 300.26096425 95.62006808 304.75193217 92.1875 309.25 C87.43281998 315.48117955 82.69245231 321.72181126 78 328 C72.68631963 335.10924974 67.30695258 342.16739483 61.921875 349.22265625 C57.92399246 354.46415493 53.94660028 359.71979578 50 365 C45.36984445 371.19474107 40.69229865 377.35221217 36 383.5 C31.2907572 389.67136217 26.59169734 395.84949199 21.9375 402.0625 C21.4736792 402.68125 21.0098584 403.3 20.53198242 403.9375 C17.66685979 407.76353166 14.81228983 411.5972895 11.9609375 415.43359375 C10.92851929 416.81889282 10.92851929 416.81889282 9.87524414 418.23217773 C8.51758068 420.05391175 7.1625271 421.87759419 5.81030273 423.70336914 C5.19872314 424.52313232 4.58714355 425.34289551 3.95703125 426.1875 C3.41022705 426.92355469 2.86342285 427.65960938 2.30004883 428.41796875 C1.87103271 428.94003906 1.4420166 429.46210938 1 430 C0.67 430 0.34 430 0 430 C0 288.1 0 146.2 0 0 Z " fill="#017306" transform="translate(0,48)"/>
<path d="M0 0 C36.80114836 -0.28212124 36.80114836 -0.28212124 52.28125 -0.34179688 C62.94913422 -0.38325296 73.61663001 -0.43185599 84.28417969 -0.52807617 C92.05507322 -0.59813504 99.82565015 -0.64307543 107.59685075 -0.65861946 C111.70682845 -0.66769724 115.81590093 -0.68883035 119.9255867 -0.7401104 C123.80494926 -0.78811796 127.68304595 -0.80218359 131.56267738 -0.79175377 C132.97591759 -0.79365783 134.3892063 -0.80728829 135.80218697 -0.83443832 C147.37564747 -1.04564965 156.91745411 1.54519009 165.68840981 9.41095829 C169.25840136 13.13213276 171.29899615 15.81075074 172 21 C172.66 21 173.32 21 174 21 C174 25.62 174 30.24 174 35 C173.34 35 172.68 35 172 35 C171.63648438 36.29164063 171.63648438 36.29164063 171.265625 37.609375 C169.89968642 41.26874131 168.05308598 44.14284296 165.75 47.25 C165.31526367 47.8478833 164.88052734 48.4457666 164.43261719 49.06176758 C160.23227869 54.78930232 155.84884763 60.37531988 151.46484375 65.96264648 C147.12522534 71.50725884 142.90959186 77.13181251 138.75 82.8125 C133.73884427 89.6546813 128.64471303 96.41322451 123.45214844 103.11914062 C115.13965785 113.88568862 106.90809498 124.71075534 98.875 135.6875 C93.78975737 142.63618043 88.56426095 149.45693433 83.24951172 156.23120117 C79.06528749 161.58264061 75.00810819 167.01569125 71 172.5 C65.87479984 179.51282969 60.61142184 186.3970494 55.25 193.23046875 C51.06572115 198.58223612 47.00828162 204.01545394 43 209.5 C37.87479984 216.51282969 32.61142184 223.3970494 27.25 230.23046875 C23.06572115 235.58223612 19.00828162 241.01545394 15 246.5 C9.87479984 253.51282969 4.61142184 260.3970494 -0.75 267.23046875 C-4.93427885 272.58223612 -8.99171838 278.01545394 -13 283.5 C-18.11555722 290.49963522 -23.36529521 297.37401209 -28.72143555 304.19091797 C-33.84617858 310.73859728 -38.77317631 317.42367716 -43.64648438 324.16015625 C-44.20271484 324.92457031 -44.75894531 325.68898438 -45.33203125 326.4765625 C-45.82421143 327.15799316 -46.3163916 327.83942383 -46.82348633 328.54150391 C-47.21173584 329.02280762 -47.59998535 329.50411133 -48 330 C-48.33 330 -48.66 330 -49 330 C-49 258.39 -49 186.78 -49 113 C-32.83 113 -16.66 113 0 113 C0 75.71 0 38.42 0 0 Z " fill="#017506" transform="translate(49,560)"/>
</svg>
